<svg width="15" height="15" viewBox="0 0 15 15" fill="none" xmlns="http://www.w3.org/2000/svg">
<g clip-path="url(#clip0_51_428)">
<path d="M14.5734 6.14813C14.6609 6.65153 14.7045 7.16157 14.7038 7.67251C14.7038 9.95438 13.8881 11.8838 12.4688 13.1897H12.4706C11.2294 14.3363 9.52313 15 7.5 15C5.51088 15 3.60322 14.2098 2.1967 12.8033C0.790176 11.3968 0 9.48913 0 7.50001C0 5.51088 0.790176 3.60323 2.1967 2.19671C3.60322 0.790183 5.51088 6.61251e-06 7.5 6.61251e-06C9.36182 -0.0217981 11.1599 0.677662 12.5175 1.95188L10.3763 4.09313C9.60223 3.3553 8.56922 2.95125 7.5 2.96813C5.54344 2.96813 3.88125 4.28813 3.28875 6.06563C2.9746 6.99704 2.9746 8.00578 3.28875 8.93719H3.29156C3.88688 10.7119 5.54625 12.0319 7.50281 12.0319C8.51344 12.0319 9.38156 11.7731 10.0547 11.3156H10.0519C10.4427 11.0567 10.7771 10.7213 11.0347 10.3296C11.2924 9.93785 11.468 9.49801 11.5509 9.03657H7.5V6.14907L14.5734 6.14813Z" fill="white"/>
</g>
<defs>
<clipPath id="clip0_51_428">
<rect width="15" height="15" fill="white"/>
</clipPath>
</defs>
</svg>
